<?xml version="1.0" standalone="no"?>
<!DOCTYPE svg PUBLIC "-//W3C//DTD SVG 20010904//EN"
 "http://www.w3.org/TR/2001/REC-SVG-20010904/DTD/svg10.dtd">
<svg version="1.0" xmlns="http://www.w3.org/2000/svg"
 width="354.000000pt" height="355.000000pt" viewBox="0 0 354.000000 355.000000"
 preserveAspectRatio="xMidYMid meet">
<metadata>
Created by potrace 1.16, written by Peter Selinger 2001-2019
</metadata>
<g transform="translate(0.000000,355.000000) scale(0.100000,-0.100000)"
fill="#000000" stroke="none">
<path d="M1515 3223 c-11 -2 -44 -9 -72 -14 -29 -6 -53 -16 -53 -22 0 -7 -9
-18 -20 -25 -11 -7 -20 -21 -20 -32 0 -14 -7 -20 -21 -20 -25 0 -102 -56 -178
-130 -31 -30 -81 -78 -111 -106 -71 -67 -282 -291 -294 -312 -5 -9 -24 -34
-42 -54 -36 -40 -55 -74 -77 -134 -8 -22 -26 -70 -41 -109 -46 -122 -76 -236
-102 -395 -14 -85 -28 -158 -30 -162 -2 -3 0 -9 6 -13 17 -11 11 -59 -9 -72
-17 -11 -18 -16 -7 -47 7 -20 15 -38 18 -41 3 -3 3 -35 1 -70 -5 -52 -2 -72
17 -109 12 -26 22 -62 23 -81 1 -22 6 -35 14 -35 8 0 18 -12 24 -28 23 -62 55
-119 86 -155 18 -20 33 -46 33 -57 0 -10 10 -25 23 -31 12 -6 51 -40 87 -74
36 -34 91 -79 123 -99 31 -20 63 -46 70 -56 6 -11 17 -20 22 -20 6 0 33 -11
61 -24 60 -29 184 -79 239 -96 22 -7 50 -21 63 -31 13 -10 29 -16 37 -13 13 6
120 -25 182 -51 17 -8 59 -17 92 -21 51 -5 65 -4 81 11 11 10 33 16 57 16 217
-8 244 -7 254 6 7 7 20 13 30 13 21 0 135 37 229 74 63 26 132 73 158 108 7
10 25 24 40 32 15 8 34 26 42 41 16 29 100 120 117 126 6 2 27 30 46 62 19 33
49 76 67 97 18 21 42 67 54 102 23 64 49 127 68 163 16 28 88 252 99 305 5 25
20 107 34 184 13 76 29 154 36 173 6 19 11 57 12 86 1 62 -26 180 -42 185 -6
2 -11 11 -11 20 0 38 -56 182 -94 242 -22 36 -46 72 -51 81 -33 53 -70 105
-87 123 -11 12 -44 53 -73 91 -29 39 -64 80 -77 93 -66 63 -119 102 -173 126
-33 15 -78 36 -100 46 -43 19 -179 62 -260 81 -27 7 -58 16 -68 21 -9 5 -59
11 -110 14 -50 3 -130 9 -177 14 -86 10 -208 11 -245 3z m160 -488 c33 -8 89
-15 125 -15 36 -1 83 -7 105 -15 22 -8 59 -15 82 -15 34 0 46 -5 59 -25 9 -14
24 -25 33 -25 26 0 89 -25 109 -43 10 -9 22 -17 27 -17 4 0 39 -26 78 -57 151
-124 213 -239 263 -486 14 -71 14 -100 5 -193 -6 -60 -18 -143 -26 -184 -8
-41 -19 -95 -23 -120 -9 -50 -79 -189 -99 -197 -7 -3 -13 -11 -13 -18 0 -6 -9
-20 -21 -31 -12 -10 -18 -26 -15 -37 3 -11 -2 -21 -12 -24 -17 -6 -85 -72
-113 -109 -40 -53 -78 -75 -165 -98 -169 -45 -364 -51 -539 -17 -162 31 -222
51 -277 93 -20 15 -44 28 -53 28 -25 0 -82 48 -89 75 -4 14 -13 25 -21 25 -8
0 -15 6 -15 14 0 8 -8 21 -18 28 -40 29 -81 113 -97 198 -32 167 -35 221 -25
388 11 163 31 256 78 352 18 36 122 174 171 225 16 17 45 60 65 97 30 54 44
69 71 78 22 7 49 30 72 60 21 26 47 54 58 61 23 15 110 29 140 22 11 -2 47
-11 80 -18z"/>
</g>
</svg>
