<?xml version="1.0" standalone="no"?>
<!DOCTYPE svg PUBLIC "-//W3C//DTD SVG 20010904//EN"
 "http://www.w3.org/TR/2001/REC-SVG-20010904/DTD/svg10.dtd">
<svg version="1.0" xmlns="http://www.w3.org/2000/svg"
 width="143.000000pt" height="402.000000pt" viewBox="0 0 143.000000 402.000000"
 preserveAspectRatio="xMidYMid meet">
<metadata>
Created by potrace 1.16, written by Peter Selinger 2001-2019
</metadata>
<g transform="translate(0.000000,402.000000) scale(0.100000,-0.100000)"
fill="#000000" stroke="none">
<path d="M633 3730 c3 -10 2 -20 -2 -22 -17 -8 -52 -94 -61 -155 -6 -38 -19
-86 -29 -108 -43 -97 -44 -107 -47 -340 -3 -241 -8 -353 -18 -395 -3 -14 -13
-119 -21 -235 -9 -115 -29 -291 -46 -390 -16 -99 -32 -202 -34 -230 -2 -27 -6
-97 -10 -155 -7 -106 -41 -380 -51 -413 -3 -10 1 -19 11 -23 14 -6 14 -8 -1
-19 -22 -16 -32 -164 -15 -231 7 -25 14 -114 17 -197 6 -195 15 -244 63 -342
31 -63 46 -83 71 -94 27 -12 34 -12 41 0 8 12 11 12 19 -1 5 -8 11 -19 13 -25
2 -6 10 -5 20 3 17 15 27 10 65 -30 9 -10 27 -18 39 -18 25 0 29 -10 12 -27
-6 -6 -8 -16 -5 -22 7 -11 76 25 76 40 0 5 7 9 15 9 8 0 17 11 21 25 3 14 15
30 25 36 11 5 19 18 19 29 0 10 4 22 10 25 5 3 10 15 10 26 0 11 7 31 16 44
18 28 44 118 44 156 0 15 6 32 14 38 25 21 48 113 53 216 5 92 10 347 13 650
0 66 0 215 -1 330 -1 116 1 280 5 365 3 85 9 263 12 395 3 132 10 276 14 320
14 134 12 425 -3 425 -6 0 -26 16 -42 36 -17 20 -36 43 -42 50 -7 7 -13 28
-13 46 -1 18 -7 51 -15 73 -8 22 -15 53 -15 68 0 20 -6 30 -20 34 -11 3 -20
10 -20 15 0 6 -13 7 -31 3 -21 -5 -36 -2 -47 8 -25 22 -59 30 -79 18 -10 -6
-12 -11 -5 -11 14 0 17 -30 2 -30 -5 0 -12 11 -16 25 -3 14 -13 25 -21 25 -10
0 -14 -7 -10 -20z"/>
</g>
</svg>
