<?xml version="1.0" standalone="no"?>
<!DOCTYPE svg PUBLIC "-//W3C//DTD SVG 20010904//EN"
 "http://www.w3.org/TR/2001/REC-SVG-20010904/DTD/svg10.dtd">
<svg version="1.0" xmlns="http://www.w3.org/2000/svg"
 width="346.000000pt" height="594.000000pt" viewBox="0 0 346.000000 594.000000"
 preserveAspectRatio="xMidYMid meet">
<metadata>
Created by potrace 1.16, written by Peter Selinger 2001-2019
</metadata>
<g transform="translate(0.000000,594.000000) scale(0.100000,-0.100000)"
fill="#000000" stroke="none">
<path d="M566 5743 c-34 -18 -73 -60 -82 -88 -8 -26 -54 -75 -71 -75 -9 0 -13
-15 -13 -47 0 -30 -8 -60 -20 -81 -11 -18 -20 -44 -20 -59 0 -14 -9 -40 -20
-58 -18 -29 -27 -61 -47 -157 -3 -16 1 -36 11 -50 9 -12 16 -35 16 -51 0 -33
20 -75 46 -98 11 -9 50 -29 88 -44 77 -30 89 -30 271 3 139 25 418 47 559 43
62 -1 233 -62 309 -110 89 -55 241 -155 247 -162 3 -3 13 -10 24 -16 10 -5 57
-43 105 -84 84 -72 131 -126 131 -154 0 -8 4 -16 9 -20 21 -12 43 -153 44
-280 2 -213 -73 -631 -120 -668 -13 -10 -23 -23 -23 -28 0 -5 -29 -39 -65 -74
-36 -36 -65 -70 -65 -75 0 -6 -4 -10 -8 -10 -15 0 -182 -168 -182 -184 0 -9
-8 -16 -18 -16 -10 0 -25 -8 -34 -17 -38 -42 -98 -93 -107 -93 -6 0 -11 -9
-11 -20 0 -17 -5 -19 -47 -15 -27 3 -60 7 -75 11 -19 4 -33 -1 -47 -15 -12
-12 -24 -21 -27 -21 -10 0 -163 -129 -225 -190 -32 -30 -72 -69 -91 -86 -18
-17 -42 -43 -53 -58 -11 -15 -29 -38 -41 -51 -47 -55 -141 -189 -166 -238 -15
-28 -28 -66 -28 -83 0 -17 -7 -37 -15 -44 -8 -7 -15 -25 -15 -40 0 -15 -7 -33
-15 -40 -8 -7 -15 -21 -15 -31 0 -10 -5 -21 -11 -25 -6 -3 -9 -17 -6 -30 2
-13 -1 -25 -8 -28 -7 -2 -15 -19 -18 -38 -3 -18 -10 -51 -15 -73 -6 -22 -12
-65 -14 -95 -3 -48 0 -56 18 -64 20 -9 22 -20 27 -155 7 -140 25 -269 45 -308
5 -10 15 -36 22 -58 7 -22 18 -47 25 -55 7 -8 16 -34 20 -57 3 -23 13 -44 20
-47 11 -4 48 -71 46 -83 -2 -13 40 -70 57 -78 13 -6 22 -19 22 -33 0 -21 53
-82 72 -82 5 0 13 -11 19 -24 6 -13 26 -31 45 -39 19 -9 34 -21 34 -26 0 -5
21 -19 48 -32 26 -12 49 -26 52 -30 7 -10 221 -110 290 -136 30 -12 96 -33
145 -48 50 -15 102 -34 117 -41 14 -8 38 -14 51 -14 14 0 29 -5 33 -11 20 -34
247 -97 272 -77 9 8 16 8 20 1 11 -17 264 -37 375 -29 135 9 236 25 269 42 15
8 30 13 35 12 4 -2 27 11 50 27 37 26 49 47 44 77 0 4 15 24 34 45 19 21 38
53 41 71 5 26 12 34 35 39 35 7 41 15 45 59 2 30 0 34 -23 34 -23 0 -30 21 -8
22 11 1 34 29 35 41 0 5 -14 6 -30 2 -29 -6 -30 -5 -25 18 9 33 -26 58 -68 50
-26 -5 -29 -4 -23 15 6 17 1 21 -23 27 -16 3 -35 13 -42 21 -6 8 -17 14 -24
14 -7 0 -20 10 -29 22 l-15 23 -20 -23 c-23 -27 -31 -28 -24 -3 7 28 -9 33
-79 22 -165 -27 -550 -31 -608 -7 -16 6 -144 34 -200 43 -19 3 -40 10 -47 15
-7 5 -17 7 -22 4 -9 -6 -48 10 -61 25 -3 3 -27 13 -55 23 -27 10 -58 25 -67
34 -9 8 -32 15 -49 16 -18 1 -34 7 -36 13 -3 7 -21 22 -41 35 -74 44 -169 139
-178 176 -4 15 -16 47 -27 72 -22 51 -40 123 -66 260 -10 52 -20 100 -22 105
-5 18 13 140 24 153 5 7 7 15 4 18 -3 3 8 31 24 62 19 36 28 64 24 79 -4 17
-2 21 9 17 10 -4 16 4 21 26 4 17 18 43 31 57 15 17 22 33 18 45 -3 11 0 18 8
18 7 0 24 17 38 37 14 20 50 52 80 71 30 19 69 47 86 61 72 61 118 97 134 106
46 27 280 247 280 263 0 4 14 16 30 25 16 10 30 22 30 27 0 13 72 85 93 93 11
4 21 16 24 27 3 11 12 20 19 20 8 0 14 5 14 10 0 6 11 15 25 20 14 5 25 16 25
24 0 8 15 25 33 37 46 32 106 99 123 137 8 17 21 32 29 32 18 0 20 20 3 20 -7
1 -2 10 12 21 70 58 72 60 67 88 -3 16 -2 32 2 37 4 5 14 35 21 67 8 34 19 57
26 57 8 0 17 12 20 28 4 15 10 32 14 37 3 6 15 46 24 90 10 44 29 115 43 158
18 55 28 119 34 210 6 73 10 137 11 142 2 32 -16 171 -23 176 -5 3 -10 28 -11
57 -2 28 -8 54 -15 56 -6 3 -9 14 -6 27 5 18 3 21 -13 17 -17 -4 -20 1 -20 33
-1 22 -7 46 -14 54 -7 9 -14 28 -15 43 -3 33 -79 198 -104 227 -10 11 -27 36
-37 55 -10 19 -26 42 -34 50 -8 8 -27 31 -42 50 -36 48 -156 170 -197 200 -19
14 -41 32 -50 40 -30 26 -123 68 -226 100 -55 18 -138 45 -185 61 -47 16 -93
29 -102 29 -8 0 -21 6 -27 14 -6 8 -37 17 -68 21 -32 4 -66 9 -78 11 -11 3
-67 7 -125 9 -58 2 -122 8 -142 13 -20 5 -40 7 -43 3 -4 -3 -23 -7 -43 -7 -20
-1 -77 -7 -127 -13 -49 -7 -122 -14 -163 -17 l-74 -5 7 58 c3 32 11 70 16 84
14 35 -14 133 -44 154 -26 18 -33 18 -71 -2z"/>
<path d="M2995 789 c-11 -17 1 -21 15 -4 8 9 8 15 2 15 -6 0 -14 -5 -17 -11z"/>
</g>
</svg>
