<?xml version="1.0" standalone="no"?>
<!DOCTYPE svg PUBLIC "-//W3C//DTD SVG 20010904//EN"
 "http://www.w3.org/TR/2001/REC-SVG-20010904/DTD/svg10.dtd">
<svg version="1.0" xmlns="http://www.w3.org/2000/svg"
 width="273.000000pt" height="493.000000pt" viewBox="0 0 273.000000 493.000000"
 preserveAspectRatio="xMidYMid meet">
<metadata>
Created by potrace 1.16, written by Peter Selinger 2001-2019
</metadata>
<g transform="translate(0.000000,493.000000) scale(0.100000,-0.100000)"
fill="#000000" stroke="none">
<path d="M1946 4715 c-3 -8 -3 -29 0 -45 6 -26 3 -31 -21 -40 -29 -11 -64 -47
-65 -66 0 -7 -11 -19 -25 -28 -28 -19 -43 -49 -56 -115 -5 -24 -22 -58 -39
-78 l-30 -34 7 -152 c4 -84 6 -172 5 -197 -1 -25 -3 -200 -5 -390 -2 -190 -9
-403 -16 -474 -6 -71 -14 -260 -16 -420 -2 -160 -7 -304 -10 -319 -5 -17 -2
-33 5 -42 10 -12 10 -21 1 -44 -7 -16 -12 -35 -11 -42 2 -8 2 -32 1 -54 -2
-35 -3 -37 -11 -17 -5 12 -16 22 -24 22 -9 0 -30 6 -48 14 -67 28 -165 54
-228 61 -36 4 -108 13 -160 22 -52 8 -156 16 -230 18 -101 2 -143 7 -166 19
l-31 16 2 163 c2 89 -1 203 -7 252 -9 89 -12 306 -7 700 3 217 -6 473 -17 545
-4 25 -6 61 -4 80 3 19 4 85 4 147 0 88 -3 116 -16 130 -9 10 -19 28 -22 40
-11 35 -69 65 -110 57 -19 -3 -40 -12 -47 -20 -6 -8 -20 -14 -30 -14 -49 0
-169 -159 -169 -224 0 -11 -10 -40 -22 -65 -21 -44 -22 -58 -21 -271 1 -124 7
-277 13 -340 16 -144 15 -132 6 -335 -21 -465 -24 -624 -13 -890 9 -229 19
-285 51 -285 8 0 23 -18 33 -40 15 -29 23 -36 32 -27 8 8 18 7 41 -6 16 -10
54 -26 83 -36 29 -10 86 -40 127 -67 119 -77 108 -71 185 -104 104 -46 271
-78 420 -80 11 0 33 -6 49 -12 25 -10 31 -9 42 7 13 18 14 18 14 -3 0 -17 6
-22 24 -22 14 0 37 -5 51 -10 18 -7 33 -7 46 0 14 8 19 7 19 -1 0 -8 15 -10
51 -5 l50 7 -3 -618 -3 -618 23 -32 c12 -17 22 -43 22 -58 0 -18 6 -29 20 -32
11 -3 20 -9 20 -14 0 -5 7 -9 15 -9 8 0 19 -9 25 -20 14 -26 59 -45 73 -31 7
7 16 7 29 0 10 -5 18 -8 18 -5 0 3 14 1 31 -4 23 -7 37 -5 55 7 13 8 30 13 38
10 15 -6 66 44 66 64 0 17 22 9 27 -11 9 -34 19 -14 32 62 19 113 34 182 41
193 4 6 10 37 13 70 4 33 11 99 16 147 5 48 7 167 4 265 -8 272 -9 423 -2 423
11 0 17 63 8 92 -4 15 -4 30 -1 32 4 2 8 64 10 138 1 73 7 282 13 464 9 286 8
347 -6 445 -23 169 -23 166 -13 258 5 48 12 113 15 146 12 115 8 293 -24 943
-3 63 -10 112 -15 112 -6 0 -7 11 -4 25 4 14 3 25 -2 25 -5 0 -9 15 -9 33 -2
45 -9 99 -16 117 -17 46 -28 91 -25 112 3 28 -11 226 -18 251 -3 9 -9 15 -14
12 -10 -6 -60 37 -60 52 0 5 -11 20 -25 33 -14 13 -25 29 -25 37 0 18 -27 17
-34 -2z"/>
<path d="M1885 4650 c-3 -5 -1 -10 4 -10 6 0 11 5 11 10 0 6 -2 10 -4 10 -3 0
-8 -4 -11 -10z"/>
</g>
</svg>
