<?xml version="1.0" standalone="no"?>
<!DOCTYPE svg PUBLIC "-//W3C//DTD SVG 20010904//EN"
 "http://www.w3.org/TR/2001/REC-SVG-20010904/DTD/svg10.dtd">
<svg version="1.0" xmlns="http://www.w3.org/2000/svg"
 width="340.000000pt" height="559.000000pt" viewBox="0 0 340.000000 559.000000"
 preserveAspectRatio="xMidYMid meet">
<metadata>
Created by potrace 1.16, written by Peter Selinger 2001-2019
</metadata>
<g transform="translate(0.000000,559.000000) scale(0.100000,-0.100000)"
fill="#000000" stroke="none">
<path d="M1315 5362 c-17 -11 -67 -54 -112 -98 -46 -43 -98 -90 -118 -104 -20
-14 -66 -49 -103 -78 -37 -29 -80 -61 -97 -72 -16 -10 -41 -34 -55 -52 -37
-47 -119 -128 -130 -128 -6 0 -10 -5 -10 -11 0 -6 -14 -27 -30 -46 -17 -18
-30 -40 -30 -48 0 -8 -16 -35 -35 -60 -34 -46 -75 -126 -75 -150 0 -7 -7 -18
-15 -25 -8 -7 -21 -34 -29 -60 -8 -27 -21 -59 -30 -72 -13 -20 -35 -111 -37
-158 -1 -8 -10 -49 -22 -90 -17 -64 -19 -104 -19 -275 1 -110 6 -231 12 -270
5 -38 12 -88 15 -110 4 -22 10 -49 14 -60 5 -11 16 -46 25 -77 19 -67 55 -146
91 -203 14 -22 28 -47 32 -55 17 -37 167 -211 289 -335 48 -49 112 -86 214
-124 19 -7 50 -19 68 -25 18 -7 47 -26 65 -43 17 -16 43 -36 57 -45 27 -16 63
-82 75 -133 4 -16 6 -67 6 -111 -2 -90 10 -114 55 -114 32 0 44 32 44 114 0
44 5 67 15 76 10 9 15 9 15 1 0 -6 11 -11 25 -11 13 0 54 -11 90 -24 36 -13
74 -22 84 -19 12 3 27 -6 42 -24 13 -16 44 -38 69 -48 25 -10 59 -29 77 -42
17 -13 42 -23 56 -23 48 0 115 -31 142 -66 14 -19 41 -40 58 -48 33 -13 267
-237 267 -254 0 -5 7 -15 15 -22 8 -7 17 -28 21 -48 4 -19 13 -47 20 -61 8
-14 14 -31 14 -38 0 -6 5 -13 12 -15 6 -2 13 -13 14 -24 5 -42 28 -110 41
-125 29 -35 10 -154 -31 -189 -9 -7 -16 -19 -16 -27 0 -15 -39 -76 -53 -82 -5
-2 -25 -20 -45 -40 -35 -34 -73 -65 -132 -109 -23 -17 -133 -66 -255 -113 -70
-27 -240 -41 -278 -22 -20 10 -32 11 -41 4 -15 -13 -54 -12 -83 2 -16 7 -34 7
-60 -1 -27 -8 -40 -8 -50 0 -10 8 -18 6 -32 -6 -13 -12 -37 -18 -73 -18 -64 0
-297 17 -355 27 -36 6 -43 5 -53 -15 -8 -15 -15 -18 -24 -11 -8 7 -41 7 -98 1
-48 -5 -102 -7 -121 -5 -38 3 -73 -12 -48 -22 7 -3 22 -14 33 -25 20 -20 20
-20 -16 -44 -39 -27 -67 -30 -96 -12 -15 10 -22 10 -31 1 -10 -10 -7 -15 12
-23 13 -6 38 -19 54 -30 17 -11 41 -24 54 -30 14 -6 21 -16 17 -25 -3 -8 -1
-17 4 -20 16 -10 23 -94 10 -110 -11 -13 -10 -18 4 -28 13 -10 14 -18 6 -47
-15 -54 -12 -102 10 -138 11 -17 21 -32 22 -32 2 -1 39 -3 83 -6 44 -3 85 -7
92 -9 6 -2 25 1 42 8 25 9 33 8 49 -6 10 -9 22 -17 27 -17 4 0 14 -8 21 -17
10 -15 30 -18 111 -19 54 -1 123 2 153 6 40 6 65 4 90 -7 58 -24 92 -24 160 2
63 23 169 44 258 51 23 1 55 12 71 23 16 12 38 21 49 21 11 0 25 7 32 15 7 8
16 12 21 9 5 -3 22 4 38 15 16 12 35 19 43 16 7 -3 29 6 48 20 19 14 39 25 45
25 5 0 16 9 22 19 8 13 19 18 32 14 13 -3 23 0 27 11 3 9 38 31 78 50 39 18
80 43 90 55 11 11 28 21 38 21 25 0 66 26 104 67 18 18 40 33 50 33 11 0 35
16 54 35 19 19 38 35 44 35 24 0 226 237 226 265 0 8 9 29 19 47 29 49 63 155
70 218 6 51 8 55 35 60 16 3 32 12 36 20 19 39 29 84 21 94 -10 12 -3 64 10
71 4 3 6 11 3 18 -2 7 -8 41 -13 77 -18 137 -68 296 -96 306 -7 3 -18 26 -25
52 -6 26 -21 65 -32 87 -11 22 -24 47 -28 55 -92 193 -198 323 -331 411 -20
13 -65 45 -100 70 -35 25 -80 54 -99 65 -19 10 -43 25 -52 32 -21 17 -63 41
-153 86 -38 19 -86 44 -105 55 -107 60 -272 123 -303 116 -30 -8 -102 26 -130
62 -15 19 -22 21 -33 12 -11 -9 -11 -15 -3 -25 9 -11 8 -14 -1 -14 -26 0 -80
43 -115 91 -27 35 -43 49 -61 49 -17 0 -24 6 -24 19 0 25 -17 30 -52 17 -22
-8 -35 -7 -61 6 -17 9 -41 19 -52 23 -11 3 -41 21 -67 38 -50 34 -115 134
-124 192 -3 17 -21 80 -40 140 -28 91 -35 133 -41 245 -12 215 7 352 66 480 4
8 23 62 41 120 19 58 44 121 57 140 26 41 119 114 133 105 6 -3 7 -31 3 -65
-7 -74 12 -113 55 -108 23 3 27 7 24 33 -6 66 7 95 69 152 32 31 59 63 59 72
0 9 12 27 25 40 14 13 25 27 25 31 0 4 21 15 47 25 38 15 52 16 77 7 16 -6 34
-8 40 -3 18 13 275 4 341 -12 33 -8 85 -18 117 -21 31 -3 87 -20 125 -37 l68
-31 40 20 c50 25 92 35 100 23 9 -15 66 -41 76 -35 5 3 9 11 9 17 0 7 9 23 20
37 11 14 20 33 20 43 0 10 8 20 18 24 9 3 25 13 35 21 13 12 15 17 5 23 -19
12 19 38 55 39 38 0 36 31 -5 54 -18 11 -52 37 -75 58 -34 30 -39 38 -23 38
29 0 25 15 -14 53 -19 20 -36 48 -40 70 -4 24 -17 44 -37 59 -17 13 -41 33
-53 45 -37 36 -103 54 -216 59 -211 9 -511 10 -516 2 -3 -5 -12 -4 -20 3 -8 6
-21 8 -31 4 -10 -4 -85 -10 -167 -12 -140 -4 -149 -3 -168 16 -23 26 -25 26
-63 3z"/>
</g>
</svg>
