<?xml version="1.0" standalone="no"?>
<!DOCTYPE svg PUBLIC "-//W3C//DTD SVG 20010904//EN"
 "http://www.w3.org/TR/2001/REC-SVG-20010904/DTD/svg10.dtd">
<svg version="1.0" xmlns="http://www.w3.org/2000/svg"
 width="307.000000pt" height="444.000000pt" viewBox="0 0 307.000000 444.000000"
 preserveAspectRatio="xMidYMid meet">
<metadata>
Created by potrace 1.16, written by Peter Selinger 2001-2019
</metadata>
<g transform="translate(0.000000,444.000000) scale(0.100000,-0.100000)"
fill="#000000" stroke="none">
<path d="M1385 4190 c-50 -4 -108 -13 -130 -20 -22 -6 -80 -14 -130 -16 -49
-3 -103 -9 -120 -14 -16 -6 -93 -17 -170 -25 -264 -28 -380 -55 -440 -100 -19
-15 -38 -24 -44 -21 -19 12 -68 -29 -99 -84 -39 -71 -47 -121 -29 -180 12 -37
22 -49 58 -68 44 -22 222 -57 239 -47 5 3 44 -2 87 -11 55 -11 102 -14 163
-10 47 4 155 6 240 6 85 0 178 0 206 0 28 0 84 9 125 20 41 11 121 32 179 46
58 14 119 31 135 38 18 7 72 11 140 10 127 -3 117 7 135 -132 12 -95 9 -155
-15 -252 -14 -55 -22 -116 -30 -220 -3 -30 -9 -99 -15 -152 -6 -53 -10 -116
-9 -140 0 -24 -6 -95 -16 -158 -9 -67 -13 -132 -9 -155 20 -119 25 -454 9
-565 -26 -167 -35 -242 -30 -249 2 -4 -3 -32 -11 -62 -44 -156 -11 -605 57
-777 5 -13 9 -75 9 -139 0 -156 19 -223 64 -223 26 0 96 -56 96 -76 0 -8 15
-21 34 -29 19 -8 37 -19 40 -24 7 -11 75 -3 93 11 7 5 20 7 31 4 23 -8 142
101 142 130 0 11 12 37 27 59 l27 39 3 221 c4 301 3 529 -2 595 -6 72 -7 61 4
175 5 55 10 154 11 220 1 66 9 174 17 240 19 154 36 390 34 480 -2 138 0 221
8 300 8 92 5 329 -7 428 -5 37 -5 70 -1 73 8 4 5 84 -7 209 -3 39 -8 86 -9
105 -2 19 -3 40 -4 47 -1 7 -10 17 -22 24 -19 10 -21 9 -15 -18 3 -15 2 -35
-4 -43 -7 -11 -14 -4 -30 32 -11 26 -27 51 -35 56 -10 5 -20 47 -31 132 -16
122 -19 136 -50 192 -8 16 -18 47 -22 70 -6 32 -12 43 -25 42 -62 -3 -67 -5
-67 -23 0 -20 -46 -36 -56 -20 -3 5 -18 9 -34 9 -16 0 -31 4 -34 9 -3 5 -34
13 -68 19 -92 14 -130 16 -225 12 -10 0 -38 1 -63 3 -25 2 -76 0 -114 -5 -48
-7 -71 -7 -79 1 -6 6 -13 10 -16 10 -4 -1 -47 -5 -96 -9z"/>
</g>
</svg>
