<?xml version="1.0" standalone="no"?>
<!DOCTYPE svg PUBLIC "-//W3C//DTD SVG 20010904//EN"
 "http://www.w3.org/TR/2001/REC-SVG-20010904/DTD/svg10.dtd">
<svg version="1.0" xmlns="http://www.w3.org/2000/svg"
 width="288.000000pt" height="496.000000pt" viewBox="0 0 288.000000 496.000000"
 preserveAspectRatio="xMidYMid meet">
<metadata>
Created by potrace 1.16, written by Peter Selinger 2001-2019
</metadata>
<g transform="translate(0.000000,496.000000) scale(0.100000,-0.100000)"
fill="#000000" stroke="none">
<path d="M1590 4721 c-46 -9 -121 -39 -308 -123 -84 -37 -155 -68 -158 -68
-24 0 -153 -62 -214 -103 -140 -94 -347 -316 -374 -403 -4 -12 -15 -29 -26
-39 -11 -10 -20 -28 -20 -40 0 -12 -7 -36 -16 -54 -11 -23 -16 -57 -15 -114 1
-74 3 -114 15 -254 2 -23 8 -48 13 -55 6 -7 13 -27 16 -44 3 -18 18 -49 33
-70 14 -22 39 -67 55 -101 15 -34 40 -70 54 -79 14 -9 25 -25 25 -35 0 -10 13
-28 30 -41 16 -12 33 -31 36 -42 14 -44 96 -146 122 -153 38 -9 52 -26 45 -54
-6 -23 -61 -101 -102 -144 -10 -11 -31 -42 -46 -70 -16 -27 -36 -59 -45 -70
-10 -11 -36 -54 -59 -95 -23 -41 -51 -88 -62 -105 -10 -16 -24 -41 -30 -55
-60 -127 -79 -174 -76 -184 2 -6 -7 -28 -20 -48 -12 -21 -23 -46 -23 -56 0
-10 -4 -22 -8 -28 -9 -10 -39 -101 -77 -239 -23 -81 -25 -109 -25 -275 0 -180
15 -330 41 -397 6 -15 15 -48 19 -73 17 -90 32 -140 41 -140 5 0 9 -17 9 -39
0 -22 6 -44 15 -51 9 -7 15 -29 15 -52 0 -28 7 -46 25 -64 14 -14 25 -34 25
-44 0 -11 4 -20 9 -20 5 0 11 -13 14 -30 5 -22 10 -28 23 -23 13 5 15 2 9 -16
-4 -14 -2 -23 9 -27 9 -3 16 -12 16 -19 0 -7 9 -15 20 -18 12 -3 20 -14 20
-25 0 -13 10 -24 31 -31 17 -6 33 -20 36 -31 4 -13 17 -23 35 -27 16 -3 32
-11 34 -18 3 -7 31 -20 62 -31 31 -10 68 -26 82 -35 14 -9 45 -19 70 -22 25
-3 50 -13 57 -23 9 -12 27 -18 56 -19 23 0 44 -3 47 -7 3 -4 32 -3 65 2 33 5
101 14 150 20 217 27 534 160 683 287 80 69 124 118 192 219 33 49 78 114 100
144 81 113 113 196 162 425 15 69 18 389 4 420 -5 11 -10 39 -12 62 -2 24 -15
71 -29 105 -15 35 -29 72 -32 83 -4 11 -12 24 -20 28 -7 4 -13 17 -13 28 0 20
-6 34 -34 84 -10 17 -20 38 -23 48 -4 12 -12 17 -23 14 -13 -3 -19 3 -24 24
-3 16 -14 37 -24 47 -10 10 -21 26 -25 35 -3 9 -15 17 -26 17 -20 0 -34 26
-35 65 -1 13 -8 21 -21 21 -11 1 -24 3 -30 4 -5 1 -13 2 -17 1 -4 0 -12 17
-18 38 -6 21 -17 42 -25 45 -8 3 -20 17 -27 31 -6 14 -19 25 -30 25 -10 0 -18
5 -18 10 0 6 -17 29 -37 51 -21 22 -43 51 -50 64 -7 12 -19 25 -28 29 -8 3
-15 13 -15 23 0 9 -10 27 -22 40 -21 23 -22 24 -4 53 9 17 14 35 11 41 -4 5
10 27 32 47 73 71 140 150 220 263 45 63 111 148 148 189 36 41 85 102 108
134 23 32 63 80 88 106 38 38 49 56 59 103 6 31 9 60 7 64 -3 5 1 37 8 72 15
68 6 157 -20 216 -7 16 -16 62 -19 102 -6 71 -18 113 -42 143 -6 8 -20 38 -30
65 -46 127 -189 277 -314 329 -118 50 -168 60 -325 62 -82 2 -166 -1 -185 -5z
m161 -437 c57 -14 140 -42 184 -61 71 -30 84 -40 103 -76 12 -23 22 -52 22
-65 0 -13 4 -31 9 -40 4 -9 11 -39 14 -65 4 -41 1 -52 -19 -74 -13 -14 -37
-60 -53 -102 -73 -189 -86 -209 -212 -333 -66 -65 -136 -129 -157 -143 -20
-14 -68 -48 -107 -75 -38 -28 -93 -63 -121 -79 -49 -26 -53 -27 -80 -13 -89
47 -202 153 -268 255 -73 111 -81 141 -80 302 1 127 4 146 28 205 28 69 100
153 166 192 19 12 50 34 68 50 18 15 38 28 45 28 6 0 38 16 69 36 80 49 173
82 234 83 28 1 98 -11 155 -25z m-492 -1745 c-11 -21 -10 -21 26 -15 28 6 36
4 33 -6 -2 -7 -14 -17 -26 -23 -37 -16 -25 -23 40 -20 l61 2 53 -53 c29 -29
63 -56 76 -60 20 -6 39 -24 112 -104 7 -8 27 -26 45 -40 17 -14 34 -33 37 -42
3 -10 11 -18 19 -18 23 0 83 -80 124 -164 87 -178 102 -214 122 -296 17 -70
19 -95 11 -140 -5 -30 -17 -98 -27 -150 -9 -52 -30 -133 -46 -180 -16 -46 -29
-90 -29 -97 0 -6 -13 -27 -30 -45 -16 -18 -30 -38 -30 -44 0 -6 -25 -35 -55
-63 -30 -29 -55 -56 -55 -61 0 -6 -15 -16 -34 -24 -19 -8 -39 -23 -45 -34 -6
-12 -21 -24 -33 -28 -30 -8 -58 -34 -68 -60 -7 -16 -15 -20 -38 -16 -24 3 -31
0 -37 -17 -4 -13 -15 -21 -28 -21 -12 0 -54 -9 -92 -20 -78 -23 -175 -20 -175
5 0 8 -8 16 -18 19 -9 3 -62 50 -118 103 l-101 98 -21 90 c-18 76 -20 108 -15
210 4 66 6 156 5 200 -2 46 8 143 22 230 37 232 46 293 46 324 0 16 7 34 15
41 8 7 15 18 15 25 0 7 11 37 25 67 13 29 30 77 36 106 7 34 17 56 30 63 13 7
18 17 14 30 -3 10 -8 28 -11 39 -3 11 -1 20 5 20 6 0 11 -7 11 -16 0 -14 3
-14 15 -4 12 10 13 16 4 26 -6 8 -15 11 -20 8 -11 -6 -12 17 -1 31 4 6 16 15
26 21 11 5 20 21 21 33 2 26 40 60 66 61 9 0 22 7 29 15 18 22 23 18 9 -6z"/>
</g>
</svg>
