<?xml version="1.0" standalone="no"?>
<!DOCTYPE svg PUBLIC "-//W3C//DTD SVG 20010904//EN"
 "http://www.w3.org/TR/2001/REC-SVG-20010904/DTD/svg10.dtd">
<svg version="1.0" xmlns="http://www.w3.org/2000/svg"
 width="317.000000pt" height="463.000000pt" viewBox="0 0 317.000000 463.000000"
 preserveAspectRatio="xMidYMid meet">
<metadata>
Created by potrace 1.16, written by Peter Selinger 2001-2019
</metadata>
<g transform="translate(0.000000,463.000000) scale(0.100000,-0.100000)"
fill="#000000" stroke="none">
<path d="M1200 4425 c-94 -26 -155 -63 -237 -141 -90 -87 -104 -118 -124 -268
-5 -39 -13 -96 -18 -126 -5 -30 -15 -95 -22 -145 -6 -49 -15 -95 -20 -100 -14
-18 -49 -356 -54 -521 -1 -54 -12 -160 -23 -234 -12 -74 -26 -162 -31 -195 -5
-33 -23 -127 -40 -208 -18 -81 -38 -198 -47 -260 -8 -62 -21 -148 -30 -192 -8
-44 -23 -134 -33 -200 -11 -66 -22 -131 -25 -145 -4 -14 -11 -68 -16 -120 -10
-110 -32 -224 -55 -295 -65 -199 -90 -374 -65 -449 9 -29 10 -55 1 -114 -6
-43 -16 -113 -21 -157 -6 -44 -15 -109 -20 -145 -6 -44 -5 -86 3 -130 10 -55
15 -65 35 -68 12 -2 22 -8 22 -13 0 -5 12 -9 27 -9 15 0 40 -4 57 -9 17 -6 64
-15 103 -21 66 -11 73 -14 73 -35 0 -18 4 -22 20 -18 11 3 20 0 20 -6 0 -6 11
-11 25 -11 20 0 26 7 34 38 26 98 42 202 43 271 0 42 6 101 13 131 23 93 44
227 65 410 17 151 40 323 55 410 2 14 11 70 20 125 9 54 18 101 20 104 3 2 33
6 66 7 34 2 64 5 66 8 3 3 14 1 24 -5 13 -6 25 -6 39 3 18 11 23 10 34 -4 12
-16 14 -16 29 -1 14 14 27 15 99 6 113 -13 307 -7 403 13 44 9 91 17 105 18
14 1 33 6 43 10 24 12 30 3 33 -49 2 -24 8 -53 14 -64 5 -11 10 -30 10 -43 0
-12 9 -45 20 -73 10 -27 40 -108 66 -180 25 -71 52 -143 59 -160 7 -16 29 -70
49 -120 21 -49 41 -99 46 -110 77 -173 109 -258 130 -350 6 -27 22 -71 36 -98
13 -27 24 -53 24 -58 0 -6 15 -30 33 -54 38 -53 71 -68 107 -49 14 7 37 15 52
18 15 3 29 14 33 25 6 18 44 41 70 41 8 0 24 9 34 19 25 25 85 37 116 23 18
-8 26 -8 35 4 7 8 18 14 25 14 8 0 15 8 17 17 6 32 -14 187 -28 222 -8 20 -11
38 -6 43 12 12 -11 150 -38 236 -35 109 -92 256 -105 272 -7 8 -15 29 -18 45
-17 99 -39 190 -49 202 -6 7 -9 16 -6 19 6 6 -35 141 -61 199 -18 40 -55 144
-71 200 -4 17 -17 62 -28 100 -11 39 -40 129 -65 200 -25 72 -49 146 -52 165
-4 19 -13 46 -20 60 -7 14 -20 50 -28 80 -37 128 -50 167 -63 197 -8 17 -14
37 -14 45 0 20 -47 155 -71 201 -10 22 -19 44 -19 50 0 5 -16 43 -35 84 -19
41 -35 78 -35 82 0 5 -7 14 -15 21 -8 7 -15 19 -15 27 0 8 -36 90 -81 181
-120 247 -132 272 -166 332 -16 30 -33 72 -37 92 -6 33 -94 215 -197 407 -37
69 -77 121 -94 121 -6 0 -42 32 -80 71 -59 59 -114 102 -127 98 -2 0 -23 -7
-48 -14z m143 -1224 c3 -15 18 -55 33 -87 15 -32 29 -70 31 -84 2 -14 11 -44
19 -68 8 -23 14 -49 14 -57 0 -8 16 -63 35 -122 19 -59 35 -121 35 -136 0 -20
6 -30 20 -34 17 -5 20 -14 20 -63 0 -37 5 -62 14 -69 8 -7 17 -24 21 -39 4
-15 12 -40 19 -57 8 -16 27 -61 43 -100 36 -84 63 -166 63 -194 0 -18 -3 -19
-27 -10 -38 14 -171 21 -178 9 -4 -6 -12 -7 -18 -3 -13 9 -23 9 -247 16 -135
4 -145 5 -143 23 14 110 39 236 68 339 19 70 32 127 50 225 22 121 35 183 60
285 13 50 26 119 30 155 8 77 13 100 24 100 5 0 11 -13 14 -29z"/>
</g>
</svg>
