<?xml version="1.0" standalone="no"?>
<!DOCTYPE svg PUBLIC "-//W3C//DTD SVG 20010904//EN"
 "http://www.w3.org/TR/2001/REC-SVG-20010904/DTD/svg10.dtd">
<svg version="1.0" xmlns="http://www.w3.org/2000/svg"
 width="289.000000pt" height="498.000000pt" viewBox="0 0 289.000000 498.000000"
 preserveAspectRatio="xMidYMid meet">
<metadata>
Created by potrace 1.16, written by Peter Selinger 2001-2019
</metadata>
<g transform="translate(0.000000,498.000000) scale(0.100000,-0.100000)"
fill="#000000" stroke="none">
<path d="M905 4728 c-110 -11 -272 -35 -284 -42 -6 -4 -18 -21 -27 -37 -9 -19
-21 -29 -29 -25 -8 3 -27 -1 -42 -9 -15 -8 -38 -15 -50 -15 -12 0 -28 -6 -35
-13 -7 -7 -25 -18 -40 -24 -16 -7 -28 -19 -28 -27 0 -8 -6 -19 -13 -23 -6 -4
-13 -19 -14 -33 -1 -14 -4 -50 -6 -80 -3 -30 -6 -57 -7 -60 -7 -15 4 -179 17
-265 18 -121 24 -246 13 -260 -5 -6 -5 -82 -1 -170 5 -100 5 -165 -1 -172 -5
-7 -7 -25 -4 -40 4 -15 8 -122 11 -237 3 -156 8 -222 21 -265 9 -31 18 -76 19
-101 1 -25 7 -83 13 -130 6 -47 14 -163 17 -259 3 -96 8 -178 11 -182 2 -4 7
-142 10 -306 3 -164 7 -318 8 -343 6 -98 18 -297 21 -331 1 -20 5 -41 9 -48 4
-6 3 -18 -2 -28 -7 -11 -5 -32 4 -62 7 -25 21 -116 30 -201 10 -104 22 -166
34 -191 23 -44 37 -131 44 -264 4 -80 9 -102 23 -113 10 -7 17 -22 15 -32 -2
-14 1 -18 12 -14 16 6 59 -13 52 -24 -2 -4 0 -17 5 -29 10 -29 33 -31 24 -3
-5 16 -2 20 19 20 14 0 31 9 40 22 12 16 18 19 29 10 10 -9 16 -9 25 0 9 9 17
7 32 -7 17 -15 25 -17 39 -8 13 8 31 8 64 0 36 -8 53 -7 74 3 16 7 44 14 63
15 19 1 53 7 75 13 24 7 44 7 49 2 5 -5 16 -5 25 -1 9 5 47 14 85 20 38 7 79
19 90 27 11 8 38 14 59 14 22 0 40 5 43 13 3 8 22 14 47 14 23 1 77 10 120 22
42 11 83 18 90 15 12 -4 48 17 181 109 21 15 57 32 80 38 22 6 55 23 71 39 17
15 40 33 53 39 12 7 22 17 22 23 0 7 17 30 39 52 21 23 64 68 95 100 31 33 56
65 56 72 0 7 9 30 20 49 36 63 70 157 70 191 0 18 11 55 26 81 14 26 23 56 20
65 -2 10 0 21 5 24 5 3 9 21 9 40 0 19 9 54 21 77 38 76 24 306 -27 443 -9 23
-15 47 -14 55 5 31 -1 47 -18 51 -11 3 -32 34 -50 71 -18 36 -40 68 -50 71
-11 4 -25 19 -33 34 -7 15 -26 37 -41 50 -15 13 -28 30 -28 38 0 23 -100 204
-112 204 -5 0 -8 6 -8 13 0 15 -72 163 -93 191 -13 18 -12 22 13 43 31 25 56
30 63 11 3 -7 6 0 6 16 1 19 14 41 39 67 21 21 44 56 52 78 7 23 28 58 45 79
47 54 117 242 117 312 0 19 6 42 14 51 17 19 26 117 12 125 -6 4 -5 10 3 14
15 10 0 96 -30 161 -10 24 -21 71 -24 105 -10 131 -50 185 -360 494 -120 120
-167 160 -199 170 -44 15 -63 29 -140 103 -27 26 -54 44 -59 41 -6 -3 -18 0
-27 8 -9 8 -42 22 -72 32 -30 10 -64 22 -75 26 -62 27 -345 95 -450 109 -27 3
-81 3 -120 -1z m37 -487 c42 -5 53 -10 58 -28 3 -12 24 -35 47 -52 48 -35 68
-63 78 -107 13 -67 80 -98 109 -51 7 12 19 43 27 69 7 26 18 49 24 51 5 2 30
1 55 -2 36 -5 47 -11 58 -33 7 -16 17 -28 22 -28 21 0 38 13 33 26 -9 25 21
15 57 -18 19 -18 41 -31 48 -30 6 2 12 -4 12 -11 0 -8 21 -30 46 -48 26 -19
67 -52 93 -74 25 -23 58 -49 74 -58 15 -10 27 -24 27 -32 0 -8 6 -18 14 -22 7
-4 21 -24 31 -43 10 -19 30 -51 46 -71 15 -19 38 -64 50 -100 21 -61 22 -69
10 -169 -10 -88 -17 -112 -42 -148 -16 -23 -29 -51 -29 -62 0 -11 -6 -20 -12
-20 -14 0 -88 -75 -88 -88 0 -5 -11 -14 -25 -20 -14 -6 -25 -16 -25 -21 0 -5
-31 -30 -69 -55 -75 -49 -252 -116 -307 -116 -37 0 -218 -56 -274 -85 -19 -10
-46 -26 -59 -36 -31 -25 -58 -24 -72 2 -9 18 -8 20 9 15 16 -5 21 -1 26 25 10
52 7 108 -7 116 -13 7 -37 64 -37 84 0 18 18 8 25 -13 7 -20 9 -17 12 16 3 21
0 43 -6 49 -6 6 -11 41 -11 79 0 53 -4 69 -17 77 -13 7 -14 12 -6 23 21 25 19
164 -2 205 -18 34 -19 53 -4 53 8 0 9 13 4 43 -4 23 -9 71 -11 107 -5 110 -9
137 -24 155 -11 13 -11 18 -1 24 10 7 10 13 2 29 -6 11 -11 45 -11 74 0 29 -5
69 -11 88 -6 19 -14 63 -19 98 -4 35 -15 71 -23 80 -10 11 -13 28 -10 44 4 23
9 27 29 22 13 -3 48 -9 76 -13z m33 -1361 c3 -5 1 -10 -4 -10 -6 0 -11 5 -11
10 0 6 2 10 4 10 3 0 8 -4 11 -10z m640 -522 c11 -38 40 -48 60 -22 10 14 16
16 27 6 11 -9 18 -7 32 9 23 27 37 20 60 -27 10 -21 22 -47 27 -56 5 -10 9
-22 9 -28 0 -6 14 -24 30 -40 17 -16 33 -44 37 -62 7 -38 51 -118 64 -118 5 0
9 -7 9 -15 0 -9 19 -41 41 -72 50 -67 99 -172 99 -211 0 -15 7 -37 15 -48 44
-59 -25 -348 -96 -394 -12 -8 -30 -22 -39 -30 -41 -38 -97 -78 -118 -84 -12
-4 -22 -12 -22 -17 0 -5 -11 -14 -25 -19 -14 -5 -25 -15 -25 -21 0 -7 -3 -10
-6 -6 -9 8 -84 -31 -84 -43 0 -6 -6 -10 -14 -10 -8 0 -16 -7 -20 -15 -3 -8
-15 -15 -26 -15 -11 0 -20 -4 -20 -10 0 -5 -7 -10 -15 -10 -10 0 -15 -10 -15
-27 0 -21 -3 -24 -9 -14 -8 12 -13 12 -35 -2 -14 -9 -37 -17 -51 -17 -14 0
-25 -4 -25 -10 0 -5 -8 -10 -18 -10 -10 0 -22 -4 -28 -9 -14 -13 -92 -30 -114
-24 -11 3 -20 1 -20 -4 0 -5 -45 -10 -101 -11 -55 -1 -109 -6 -119 -12 -41
-22 -43 -16 -38 108 4 73 1 154 -7 212 -51 369 -62 494 -46 504 5 4 14 -2 20
-11 13 -24 3 102 -11 140 -11 28 -6 42 15 42 7 1 10 7 8 15 -14 60 -41 197
-41 213 0 19 1 20 20 2 20 -18 20 -17 20 53 0 81 -6 102 -29 102 -12 0 -10 5
9 20 26 20 52 19 102 -6 25 -13 104 -16 213 -9 22 1 54 3 71 4 24 1 33 7 38
24 7 21 8 21 15 3 7 -19 75 -46 119 -46 24 0 24 0 6 116 -5 34 1 44 26 44 9 0
20 -13 25 -32z"/>
</g>
</svg>
