<?xml version="1.0" standalone="no"?>
<!DOCTYPE svg PUBLIC "-//W3C//DTD SVG 20010904//EN"
 "http://www.w3.org/TR/2001/REC-SVG-20010904/DTD/svg10.dtd">
<svg version="1.0" xmlns="http://www.w3.org/2000/svg"
 width="298.000000pt" height="421.000000pt" viewBox="0 0 298.000000 421.000000"
 preserveAspectRatio="xMidYMid meet">
<metadata>
Created by potrace 1.16, written by Peter Selinger 2001-2019
</metadata>
<g transform="translate(0.000000,421.000000) scale(0.100000,-0.100000)"
fill="#000000" stroke="none">
<path d="M489 4011 c-29 -7 -104 -68 -185 -151 -38 -39 -54 -63 -54 -82 0 -21
-5 -28 -19 -28 -26 0 -36 -17 -20 -37 11 -13 10 -17 -4 -28 -24 -17 -21 -25 8
-25 14 0 25 -4 25 -9 0 -19 -20 -21 -51 -5 -26 13 -36 14 -58 4 -15 -8 -21
-14 -13 -17 6 -3 12 -14 12 -25 0 -14 5 -18 15 -14 8 3 26 1 39 -4 14 -5 27
-5 33 1 16 16 63 -7 63 -31 0 -11 7 -23 15 -26 24 -10 17 -22 -15 -29 -17 -4
-30 -13 -30 -22 0 -10 6 -14 20 -10 11 3 23 1 26 -4 3 -5 -1 -9 -9 -9 -8 0
-25 -9 -38 -20 -19 -16 -21 -21 -10 -29 8 -5 10 -14 6 -21 -8 -13 8 -12 62 5
17 6 22 2 28 -23 6 -31 27 -54 58 -65 24 -9 97 57 97 88 0 12 7 28 15 35 8 7
15 22 15 34 0 12 9 29 20 39 20 16 26 17 101 2 45 -8 85 -12 90 -9 21 12 40
-20 40 -65 0 -249 11 -580 21 -598 6 -13 8 -44 5 -75 -3 -29 -1 -73 4 -98 6
-25 10 -53 9 -62 -1 -40 -1 -69 4 -178 4 -63 7 -144 9 -180 2 -36 7 -71 11
-78 4 -6 2 -20 -4 -31 -7 -14 -7 -28 2 -48 16 -37 24 -297 14 -483 -12 -246
-11 -413 2 -417 7 -3 12 -21 12 -43 0 -21 4 -41 8 -44 5 -3 6 -38 4 -78 -9
-119 -6 -160 11 -173 12 -8 14 -22 10 -54 -4 -29 -2 -46 7 -51 21 -13 1 -48
-34 -60 -19 -6 -38 -10 -42 -9 -5 1 -18 1 -29 0 -19 -1 -20 -9 -22 -120 -1
-93 -5 -124 -18 -145 -16 -25 -16 -26 0 -26 20 0 70 -33 106 -70 26 -28 127
-57 221 -64 57 -4 77 -14 72 -34 -3 -11 10 -28 33 -45 29 -22 43 -26 63 -20
14 4 46 7 72 8 25 0 50 3 54 7 4 5 22 8 40 8 18 0 36 5 39 11 11 17 49 27 67
18 11 -6 25 -6 35 0 10 5 37 15 61 22 23 7 47 18 53 26 6 7 17 13 24 13 7 0
18 7 25 15 7 8 21 15 31 15 9 0 24 6 31 14 8 7 34 17 57 21 29 5 45 13 48 25
5 20 71 60 99 60 33 1 98 45 104 71 3 13 21 34 40 47 19 12 43 30 54 38 10 9
31 20 47 26 16 5 29 14 29 19 0 5 17 32 38 59 20 27 48 65 62 85 14 20 37 52
52 70 16 18 28 38 28 44 0 6 6 11 13 11 15 0 29 25 47 88 7 23 16 42 20 42 4
0 15 16 24 35 9 19 22 35 28 35 6 0 8 9 5 20 -3 10 1 24 9 31 8 6 14 17 14 24
0 6 9 22 19 34 11 12 17 30 14 41 -3 11 0 26 6 34 6 7 9 20 6 28 -3 8 7 23 24
36 28 21 30 25 24 72 -5 40 -3 50 9 50 11 0 17 16 21 60 4 33 13 73 21 88 7
15 17 61 21 102 4 41 8 89 10 105 7 65 8 173 2 235 -4 36 -11 128 -17 205 -6
77 -20 169 -31 205 -10 36 -32 110 -48 165 -38 129 -82 246 -118 315 -16 30
-37 73 -46 95 -29 68 -114 207 -162 264 -27 33 -130 137 -180 182 -22 20 -57
54 -77 75 -58 60 -92 88 -134 109 -22 11 -55 32 -74 48 -19 15 -39 27 -44 27
-5 0 -17 6 -25 14 -9 7 -38 21 -66 31 -27 10 -54 22 -60 26 -5 3 -25 10 -43
14 -18 4 -45 13 -60 21 -15 8 -36 14 -47 14 -12 0 -25 4 -30 8 -6 4 -37 16
-70 27 -33 10 -67 25 -76 32 -9 7 -18 10 -21 7 -4 -3 -28 2 -55 11 -73 25
-502 68 -660 65 -28 0 -54 4 -58 10 -7 11 -44 12 -86 1z m927 -662 c40 -17 54
-28 54 -43 1 -20 1 -20 14 -3 13 17 15 16 21 -13 7 -32 36 -53 43 -32 6 20 32
13 72 -18 21 -16 44 -30 52 -30 7 0 19 -9 26 -20 7 -11 17 -20 24 -20 6 0 35
-24 64 -52 29 -29 64 -61 78 -71 14 -10 26 -27 26 -37 0 -13 7 -20 18 -20 10
0 25 -8 33 -17 9 -10 28 -28 42 -40 15 -13 27 -32 27 -43 0 -11 4 -20 9 -20 5
0 18 -19 30 -42 12 -24 27 -51 34 -61 10 -14 9 -19 -3 -28 -11 -8 -12 -12 -2
-16 6 -2 12 -13 12 -24 0 -11 7 -31 16 -44 9 -13 13 -29 9 -35 -3 -5 0 -22 8
-37 18 -35 70 -224 63 -231 -3 -2 2 -18 10 -35 12 -23 13 -31 4 -37 -8 -5 -9
-13 -4 -21 5 -8 10 -81 11 -164 2 -193 9 -330 17 -343 3 -6 2 -21 -3 -34 -6
-13 -10 -16 -11 -8 -1 13 -2 13 -9 0 -11 -19 -25 -90 -22 -112 1 -9 -5 -31
-14 -49 -13 -24 -14 -33 -4 -39 8 -6 6 -9 -7 -12 -15 -3 -18 -11 -16 -45 2
-22 -1 -44 -7 -48 -6 -3 -11 -15 -11 -26 0 -10 -4 -19 -10 -19 -5 0 -10 -9
-10 -19 0 -11 -6 -26 -13 -33 -8 -7 -16 -19 -18 -25 -11 -31 -170 -213 -187
-213 -4 0 -29 -23 -56 -50 -27 -28 -55 -50 -61 -50 -7 0 -54 -27 -104 -61 -74
-49 -97 -60 -117 -55 -17 5 -30 2 -38 -7 -6 -8 -23 -17 -38 -21 -27 -6 -28 -5
-29 36 -4 154 -3 220 2 224 3 2 5 65 3 141 -1 76 -3 197 -4 268 -1 72 -8 157
-16 189 -7 33 -11 63 -9 67 3 4 -2 12 -11 19 -10 9 -13 22 -9 40 3 14 -1 69
-10 123 -13 80 -19 265 -15 432 1 53 -20 298 -28 309 -3 6 -8 43 -9 81 -2 39
-5 88 -8 110 -2 22 -6 61 -9 87 -3 26 -9 56 -15 66 -5 10 -6 24 -1 32 5 8 0
31 -11 57 -10 24 -18 47 -17 51 1 4 -5 21 -12 37 -7 17 -14 50 -15 75 0 25 -5
56 -9 69 -6 16 -4 26 5 33 21 14 115 2 175 -23z"/>
</g>
</svg>
