<?xml version="1.0" standalone="no"?>
<!DOCTYPE svg PUBLIC "-//W3C//DTD SVG 20010904//EN"
 "http://www.w3.org/TR/2001/REC-SVG-20010904/DTD/svg10.dtd">
<svg version="1.0" xmlns="http://www.w3.org/2000/svg"
 width="247.000000pt" height="422.000000pt" viewBox="0 0 247.000000 422.000000"
 preserveAspectRatio="xMidYMid meet">
<metadata>
Created by potrace 1.16, written by Peter Selinger 2001-2019
</metadata>
<g transform="translate(0.000000,422.000000) scale(0.100000,-0.100000)"
fill="#000000" stroke="none">
<path d="M843 4074 c-3 -8 -11 -14 -19 -14 -8 0 -14 -5 -14 -11 0 -7 -9 -9
-21 -6 -21 6 -103 -26 -114 -44 -4 -5 -14 -9 -23 -8 -52 8 -115 -32 -124 -76
-2 -14 -11 -20 -28 -19 -14 1 -29 -5 -33 -12 -4 -8 -14 -14 -22 -14 -29 0 -39
-44 -41 -182 -1 -75 -5 -141 -8 -147 -4 -6 -2 -19 4 -30 15 -30 12 -82 -10
-146 -11 -32 -20 -69 -20 -81 0 -13 -9 -56 -20 -96 -11 -40 -19 -86 -19 -103
1 -16 -1 -57 -5 -90 -4 -33 -11 -105 -17 -160 -6 -55 -15 -116 -20 -135 -11
-46 -16 -85 -35 -260 -19 -173 -13 -512 11 -685 21 -148 25 -530 6 -690 -9
-79 -11 -153 -6 -220 4 -55 8 -127 9 -160 3 -87 15 -155 34 -194 13 -26 14
-35 4 -38 -15 -6 -42 -55 -42 -77 0 -8 10 -18 22 -22 13 -4 34 -15 47 -25 13
-11 31 -19 41 -19 9 0 30 -17 46 -37 46 -58 105 -116 111 -109 4 3 -4 17 -17
31 -40 43 -12 48 60 12 94 -47 150 -67 202 -71 25 -2 50 -6 54 -9 23 -13 96
-18 108 -7 8 6 17 7 19 3 11 -17 237 6 297 29 8 4 47 9 85 13 88 7 194 25 220
35 11 5 57 11 103 14 135 9 203 26 213 54 7 19 12 22 23 13 7 -6 16 -8 20 -4
4 4 15 8 24 8 9 0 19 11 22 25 4 18 16 27 45 36 45 12 59 34 22 34 -32 0 -39
9 -22 27 11 10 27 12 59 8 25 -4 49 -4 55 -1 19 12 -1 36 -29 36 -16 0 -32 4
-35 10 -3 5 -15 10 -26 10 -22 0 -24 12 -7 43 7 12 13 42 14 67 8 155 7 168
-23 183 -16 9 -22 17 -14 21 16 10 14 36 -3 36 -7 0 -20 9 -27 20 -13 18 -29
21 -170 26 -88 3 -202 1 -265 -5 -202 -20 -229 -22 -364 -26 -140 -4 -237 -12
-252 -22 -5 -3 -38 -7 -73 -9 l-63 -5 5 253 c7 416 17 572 40 610 l19 33 100
-2 c54 0 137 -3 184 -6 47 -4 132 -9 190 -13 69 -4 124 -2 160 6 30 6 75 13
100 14 25 2 64 9 88 15 35 10 42 15 37 31 -7 23 10 35 55 35 44 0 49 27 6 35
-31 5 -49 30 -21 30 22 0 48 27 40 41 -4 5 -1 18 7 27 33 41 40 63 26 79 -7 9
-12 24 -10 33 2 11 -6 20 -20 23 -22 6 -22 7 -3 21 20 14 19 15 -12 48 -18 19
-33 38 -34 43 -1 25 -67 100 -90 103 -13 2 -39 17 -59 33 -50 42 -52 44 -85
57 -16 6 -43 10 -60 8 -16 -2 -34 0 -40 4 -14 12 -65 0 -65 -15 0 -6 -17 -18
-39 -25 -39 -12 -81 -7 -81 11 0 6 -4 8 -9 5 -4 -3 -33 1 -62 9 -64 17 -287
14 -298 -4 -5 -8 -12 -8 -24 2 -24 17 -29 90 -11 141 11 30 17 121 24 336 5
162 9 296 10 298 1 10 19 -1 22 -15 4 -21 60 -24 105 -6 18 7 57 13 86 13 48
0 55 3 65 25 14 30 32 33 32 5 0 -15 7 -20 29 -20 17 0 31 6 35 16 4 9 13 14
21 10 8 -3 85 -8 172 -12 86 -3 167 -10 180 -15 12 -4 30 -6 38 -3 9 4 24 -1
35 -11 19 -17 20 -17 37 2 10 11 59 33 108 48 50 15 115 35 145 45 50 17 52
19 22 19 -30 1 -33 3 -26 24 10 32 25 49 41 43 8 -3 17 2 20 12 9 23 29 42 43
42 7 0 9 7 6 15 -4 10 3 20 19 27 28 13 32 30 10 48 -8 7 -15 18 -15 26 0 7
-10 20 -22 28 -18 13 -19 18 -8 30 7 10 9 23 4 33 -4 10 -6 37 -5 61 2 24 -2
42 -8 42 -5 0 -13 16 -17 35 -3 19 -11 38 -16 41 -5 4 0 11 13 18 37 18 33 32
-16 56 -26 13 -47 31 -51 43 -10 37 -58 67 -116 73 -28 3 -57 9 -64 15 -10 8
-44 12 -204 24 -155 11 -305 27 -314 34 -6 5 -31 11 -56 15 -25 4 -78 14 -117
24 -56 13 -73 21 -73 35 0 9 -7 17 -15 17 -8 0 -14 -3 -14 -7 4 -22 -2 -25
-14 -9 -17 24 -125 32 -134 10z m87 -965 c0 -5 -4 -9 -10 -9 -5 0 -10 7 -10
16 0 8 5 12 10 9 6 -3 10 -10 10 -16z"/>
</g>
</svg>
