<?xml version="1.0" standalone="no"?>
<!DOCTYPE svg PUBLIC "-//W3C//DTD SVG 20010904//EN"
 "http://www.w3.org/TR/2001/REC-SVG-20010904/DTD/svg10.dtd">
<svg version="1.0" xmlns="http://www.w3.org/2000/svg"
 width="188.000000pt" height="557.000000pt" viewBox="0 0 188.000000 557.000000"
 preserveAspectRatio="xMidYMid meet">
<metadata>
Created by potrace 1.16, written by Peter Selinger 2001-2019
</metadata>
<g transform="translate(0.000000,557.000000) scale(0.100000,-0.100000)"
fill="#000000" stroke="none">
<path d="M598 5264 c-9 -19 -17 -24 -32 -20 -26 7 -76 -14 -76 -32 0 -7 -16
-27 -36 -44 -23 -21 -34 -38 -31 -49 3 -10 -1 -23 -9 -30 -38 -31 4 -159 58
-178 43 -15 88 -14 94 3 3 8 19 20 35 26 20 9 29 19 29 36 0 26 17 71 36 94 7
8 16 50 20 93 6 73 5 79 -16 102 -30 32 -57 32 -72 -1z"/>
<path d="M825 4039 c-6 -18 -13 -20 -42 -16 -27 5 -53 -3 -126 -39 l-92 -45
-39 -78 -38 -78 7 -104 c9 -140 41 -423 55 -482 6 -27 8 -52 6 -56 -3 -4 1
-25 9 -47 19 -52 19 -68 0 -60 -14 5 -15 -4 -8 -72 7 -71 8 -161 2 -302 -2
-61 7 -107 26 -130 13 -15 9 -70 -5 -70 -8 0 -6 -152 2 -183 2 -10 9 -22 15
-25 13 -8 33 -152 21 -152 -4 0 -8 -9 -8 -19 0 -11 -5 -21 -11 -23 -9 -3 -9
-9 0 -26 38 -74 37 -68 10 -75 -18 -5 -20 -11 -15 -36 3 -17 9 -45 12 -62 5
-25 4 -30 -7 -24 -8 5 -6 -1 4 -12 16 -18 16 -21 2 -27 -13 -5 -14 -10 -4 -27
7 -14 9 -46 4 -93 -4 -52 -2 -84 8 -114 8 -24 13 -52 10 -63 -3 -11 -1 -30 5
-42 13 -24 33 -121 33 -152 0 -11 0 -55 -1 -97 0 -42 -5 -80 -11 -83 -5 -4 -7
-22 -3 -43 4 -20 8 -59 9 -87 3 -82 13 -161 26 -207 7 -24 14 -61 15 -83 10
-117 28 -255 35 -255 4 0 10 -23 14 -50 8 -56 25 -74 89 -91 21 -6 45 -16 52
-24 20 -19 99 -28 126 -14 27 15 90 18 99 5 12 -15 39 2 39 25 0 12 8 23 20
26 11 3 20 13 20 22 1 14 3 13 15 -3 7 -10 18 -15 24 -11 15 9 14 58 -1 73 -9
9 -9 12 0 12 6 0 11 12 10 28 -1 50 8 104 20 111 8 5 10 37 7 101 -5 100 4
143 36 170 17 14 18 24 9 150 -6 74 -12 151 -15 170 -2 19 -7 57 -11 83 -8 62
-7 375 1 447 4 35 1 81 -8 125 -13 60 -14 73 -1 97 17 32 20 209 4 239 -6 10
-7 19 -2 19 6 0 6 19 1 46 -5 25 -8 48 -7 52 1 4 -4 25 -10 47 -6 22 -20 106
-31 186 -23 162 -41 249 -52 249 -16 0 -18 33 -3 45 16 11 14 16 -15 58 -26
39 -30 50 -20 65 9 14 9 55 2 163 -6 79 -8 191 -6 249 5 119 -16 296 -45 375
-15 42 -79 169 -119 238 -18 31 -116 127 -129 127 -7 0 -16 -10 -19 -21z"/>
</g>
</svg>
