<?xml version="1.0" standalone="no"?>
<!DOCTYPE svg PUBLIC "-//W3C//DTD SVG 20010904//EN"
 "http://www.w3.org/TR/2001/REC-SVG-20010904/DTD/svg10.dtd">
<svg version="1.0" xmlns="http://www.w3.org/2000/svg"
 width="339.000000pt" height="480.000000pt" viewBox="0 0 339.000000 480.000000"
 preserveAspectRatio="xMidYMid meet">
<metadata>
Created by potrace 1.16, written by Peter Selinger 2001-2019
</metadata>
<g transform="translate(0.000000,480.000000) scale(0.100000,-0.100000)"
fill="#000000" stroke="none">
<path d="M839 4649 c-8 -5 -26 -9 -40 -9 -15 0 -29 -7 -33 -15 -4 -11 -13 -14
-31 -9 -20 5 -27 1 -36 -20 -8 -17 -20 -26 -35 -26 -13 0 -26 -4 -29 -10 -3
-5 -17 -10 -30 -10 -34 0 -55 -10 -55 -27 0 -7 -11 -24 -24 -36 -13 -12 -26
-34 -28 -47 -2 -19 -10 -26 -30 -28 -20 -2 -28 -9 -28 -23 0 -11 -4 -18 -9
-15 -39 24 -66 -228 -41 -379 6 -33 13 -184 16 -335 5 -253 11 -326 45 -535 6
-33 8 -136 5 -230 -2 -93 0 -235 5 -315 25 -407 32 -488 41 -520 5 -19 11 -79
14 -132 4 -113 5 -118 22 -136 6 -7 12 -32 12 -55 -2 -111 9 -693 14 -776 3
-51 10 -108 16 -127 5 -19 15 -49 20 -67 6 -18 10 -55 10 -82 0 -48 35 -153
68 -203 10 -15 16 -50 17 -95 1 -53 7 -85 24 -121 30 -62 53 -82 101 -90 21
-3 40 -13 44 -21 3 -8 11 -12 19 -9 8 3 42 0 76 -5 44 -7 77 -7 112 1 43 10
50 15 64 51 17 43 36 123 40 172 1 17 8 59 14 95 6 36 11 135 12 220 0 85 4
180 8 210 12 78 -34 491 -63 570 -3 8 -10 94 -16 190 -5 96 -13 197 -16 224
-5 33 -4 47 4 45 5 -2 53 -42 105 -89 52 -47 103 -92 113 -101 10 -9 49 -52
85 -95 37 -44 109 -128 161 -189 52 -60 124 -150 161 -200 59 -79 283 -301
328 -325 9 -5 33 -31 54 -59 21 -27 48 -54 60 -61 15 -8 25 -25 29 -50 4 -24
15 -46 31 -58 14 -11 25 -24 25 -30 0 -5 17 -25 37 -44 21 -18 46 -45 55 -60
9 -14 31 -32 48 -39 16 -8 30 -17 30 -21 0 -15 80 -60 95 -54 9 3 29 -1 44 -9
16 -8 31 -11 35 -8 3 4 12 -2 20 -12 12 -17 14 -17 34 3 25 25 40 28 48 8 3
-8 15 -14 27 -14 29 -1 129 -18 157 -27 20 -6 22 -4 17 14 -5 20 8 31 15 12 2
-5 15 -13 31 -16 24 -6 27 -5 27 19 0 17 5 26 15 26 8 0 22 8 31 19 9 10 24
16 35 14 17 -5 18 0 12 46 -4 40 -3 52 9 56 11 4 16 21 16 51 1 36 -4 50 -23
68 -29 27 -32 46 -8 46 13 0 11 6 -10 28 -15 15 -27 32 -27 38 0 5 -13 25 -29
45 -16 19 -48 75 -70 123 -25 55 -47 90 -59 93 -10 2 -26 16 -34 31 -15 25
-134 144 -205 204 -54 46 -125 95 -189 130 -96 52 -172 106 -196 138 -12 16
-29 32 -38 35 -8 3 -24 21 -35 41 -10 19 -30 42 -44 49 -15 7 -41 29 -60 49
-26 27 -38 33 -48 25 -10 -9 -15 -5 -23 15 -5 14 -14 26 -20 26 -6 0 -30 20
-53 45 -24 25 -47 45 -52 45 -4 0 -18 10 -30 22 -57 58 -159 151 -257 236 -60
51 -108 97 -108 103 0 6 55 63 122 127 68 64 155 150 194 189 39 40 76 73 82
73 6 0 33 14 59 30 26 17 55 30 65 30 10 0 45 27 77 59 56 56 80 94 97 151 3
14 20 40 35 58 16 18 29 40 29 50 0 10 23 45 50 79 28 34 50 68 50 76 0 8 7
20 16 28 8 7 24 29 34 50 11 20 35 54 54 74 20 20 38 47 42 59 4 11 15 32 25
45 11 13 19 32 19 43 0 10 11 30 24 43 14 13 28 35 31 47 4 13 15 32 25 43 10
11 23 30 29 42 6 12 20 25 31 28 11 3 20 14 20 24 0 10 7 24 16 31 36 31 93
159 126 285 6 22 17 52 24 67 19 35 18 83 -2 114 -9 13 -14 27 -10 31 3 4 -1
17 -10 31 -14 22 -14 25 0 41 19 21 21 41 4 41 -6 0 -8 -3 -5 -7 4 -3 -3 -13
-14 -21 -20 -13 -23 -12 -46 14 -21 26 -23 27 -18 6 8 -27 -18 -41 -40 -22
-12 10 -16 9 -21 -3 -7 -20 -31 -11 -37 14 -4 15 -13 19 -38 17 -29 -3 -34 0
-35 20 -1 23 -14 45 -14 24 0 -7 -6 -12 -14 -12 -7 0 -19 -7 -26 -15 -7 -8
-21 -15 -31 -15 -11 0 -19 -4 -19 -9 0 -5 -10 -11 -23 -15 -38 -9 -130 -84
-146 -120 -9 -18 -21 -39 -27 -47 -6 -8 -14 -26 -18 -41 -3 -15 -20 -36 -36
-48 -17 -12 -30 -30 -30 -41 0 -10 -7 -19 -15 -19 -18 0 -55 -70 -55 -103 0
-15 -15 -37 -40 -60 -22 -19 -40 -42 -40 -50 0 -8 -16 -32 -35 -53 -24 -27
-34 -46 -30 -60 5 -24 -9 -40 -40 -46 -16 -3 -20 -11 -20 -48 0 -41 -2 -45
-23 -43 -16 2 -22 -2 -22 -17 0 -14 -5 -18 -17 -13 -13 5 -15 2 -10 -11 8 -20
-18 -51 -42 -51 -12 0 -15 -9 -13 -40 2 -27 0 -36 -7 -26 -5 8 -16 11 -26 7
-13 -5 -16 -14 -11 -39 6 -30 4 -34 -16 -33 -17 1 -23 -5 -23 -21 0 -14 -22
-44 -53 -76 -29 -29 -52 -58 -52 -65 0 -7 -6 -12 -14 -12 -8 0 -16 -7 -20 -15
-3 -8 -12 -15 -21 -15 -8 0 -15 -7 -15 -15 0 -9 -16 -30 -35 -48 -19 -17 -35
-36 -35 -42 0 -6 -10 -15 -22 -20 -13 -6 -28 -20 -34 -32 -6 -13 -14 -20 -17
-16 -4 3 -31 -16 -61 -43 -64 -58 -83 -74 -90 -74 -3 0 -16 -10 -29 -22 -57
-54 -86 -78 -93 -78 -5 0 -27 -19 -50 -41 l-43 -42 -5 34 c-12 72 -14 310 -4
424 7 89 6 192 -4 400 -8 154 -15 300 -15 325 0 79 -32 422 -42 454 -5 17 -12
50 -15 73 -4 24 -18 69 -32 100 -19 41 -27 77 -28 122 -1 55 -4 65 -22 71 -11
5 -27 4 -35 -1z"/>
</g>
</svg>
