<?xml version="1.0" standalone="no"?>
<!DOCTYPE svg PUBLIC "-//W3C//DTD SVG 20010904//EN"
 "http://www.w3.org/TR/2001/REC-SVG-20010904/DTD/svg10.dtd">
<svg version="1.0" xmlns="http://www.w3.org/2000/svg"
 width="244.000000pt" height="407.000000pt" viewBox="0 0 244.000000 407.000000"
 preserveAspectRatio="xMidYMid meet">
<metadata>
Created by potrace 1.16, written by Peter Selinger 2001-2019
</metadata>
<g transform="translate(0.000000,407.000000) scale(0.100000,-0.100000)"
fill="#000000" stroke="none">
<path d="M707 3893 c-12 -12 -36 -18 -79 -19 -70 -3 -108 -18 -139 -58 -11
-14 -29 -26 -40 -26 -10 0 -19 -5 -19 -12 0 -7 -21 -33 -46 -59 -46 -46 -57
-72 -74 -174 -17 -97 -32 -275 -25 -295 4 -13 1 -28 -7 -38 -24 -28 -42 -125
-33 -179 12 -70 11 -154 -3 -373 -13 -212 -17 -452 -8 -625 3 -60 1 -114 -4
-120 -8 -10 -11 -50 -11 -155 0 -25 -4 -74 -9 -110 -5 -36 -5 -87 0 -115 4
-27 4 -57 0 -65 -5 -9 -4 -24 2 -33 5 -10 10 -93 10 -185 0 -92 4 -175 9 -184
6 -10 5 -19 -1 -23 -6 -4 -7 -12 -3 -18 4 -6 7 -140 7 -298 1 -205 4 -290 13
-300 6 -8 15 -37 18 -64 10 -72 37 -98 160 -159 59 -29 92 -37 160 -40 28 -1
55 -5 61 -9 7 -4 26 0 43 9 18 9 44 14 59 11 54 -10 88 -18 117 -27 54 -16
109 -22 200 -23 111 0 336 21 351 34 6 5 87 14 180 20 93 5 219 19 279 31 61
11 138 20 172 19 45 -2 70 3 89 16 15 10 32 18 38 19 6 0 17 2 24 2 14 2 16
58 2 67 -22 14 -10 51 20 62 26 10 30 16 30 51 0 25 -5 42 -14 45 -7 3 -20 26
-29 50 -28 82 -59 142 -85 161 -23 18 -32 18 -146 7 -67 -6 -173 -13 -236 -16
-156 -5 -226 -12 -355 -34 -123 -22 -164 -25 -279 -23 -68 2 -77 4 -66 17 11
13 2 15 -68 15 -46 0 -84 5 -87 10 -5 8 -12 7 -22 -1 -11 -10 -16 -10 -22 0
-5 7 -23 13 -42 14 l-34 2 -6 120 c-7 147 -3 371 12 565 6 80 10 201 9 270 -1
126 12 310 25 329 3 6 8 70 10 141 2 72 7 135 10 140 3 5 8 44 10 87 11 163
14 201 23 293 6 52 10 102 11 110 26 377 20 493 -43 795 -14 66 -25 141 -26
167 0 62 -13 94 -42 102 l-23 6 22 18 c20 15 21 20 10 42 -16 31 -37 36 -60
13z m8 -33 c3 -5 2 -10 -4 -10 -5 0 -13 5 -16 10 -3 6 -2 10 4 10 5 0 13 -4
16 -10z"/>
<path d="M1130 660 c0 -5 7 -7 15 -4 8 4 15 8 15 10 0 2 -7 4 -15 4 -8 0 -15
-4 -15 -10z"/>
</g>
</svg>
