<?xml version="1.0" standalone="no"?>
<!DOCTYPE svg PUBLIC "-//W3C//DTD SVG 20010904//EN"
 "http://www.w3.org/TR/2001/REC-SVG-20010904/DTD/svg10.dtd">
<svg version="1.0" xmlns="http://www.w3.org/2000/svg"
 width="329.000000pt" height="484.000000pt" viewBox="0 0 329.000000 484.000000"
 preserveAspectRatio="xMidYMid meet">
<metadata>
Created by potrace 1.16, written by Peter Selinger 2001-2019
</metadata>
<g transform="translate(0.000000,484.000000) scale(0.100000,-0.100000)"
fill="#000000" stroke="none">
<path d="M2915 4561 c-5 -17 -13 -19 -53 -14 -26 3 -50 10 -55 16 -5 9 -11 7
-18 -6 -7 -12 -14 -15 -22 -8 -20 16 -105 10 -126 -10 -10 -10 -27 -15 -38
-13 -16 5 -22 -4 -36 -46 -9 -29 -17 -81 -17 -115 0 -47 -4 -64 -15 -69 -8 -3
-15 -13 -15 -22 0 -10 5 -14 15 -10 19 7 19 2 0 -34 -8 -16 -24 -31 -35 -35
-11 -3 -20 -13 -20 -21 0 -8 -7 -14 -15 -14 -8 0 -15 -6 -15 -14 0 -8 -9 -30
-20 -49 -15 -25 -19 -48 -17 -90 1 -37 -2 -58 -10 -61 -8 -4 -13 -49 -17 -143
-5 -157 -14 -233 -27 -233 -5 0 -9 -19 -9 -42 0 -24 -5 -59 -10 -78 -6 -23 -6
-48 0 -70 8 -26 6 -37 -5 -50 -12 -13 -16 -48 -19 -137 -2 -66 -7 -126 -11
-133 -4 -7 -9 -45 -10 -84 -1 -39 -12 -145 -23 -235 -12 -90 -20 -167 -18
-170 2 -3 -7 -58 -21 -121 -13 -63 -27 -147 -31 -187 -5 -44 -14 -78 -24 -90
-11 -12 -18 -42 -21 -90 -2 -40 -9 -78 -14 -85 -11 -14 -33 -170 -33 -236 0
-22 -4 -43 -8 -46 -8 -5 -57 172 -88 314 -8 41 -22 93 -29 115 -8 22 -17 63
-20 90 -10 76 -33 196 -67 345 -17 74 -34 164 -39 200 -5 36 -17 128 -27 205
-10 78 -21 145 -25 151 -3 6 -13 55 -21 110 -8 55 -27 131 -41 169 -14 39 -37
100 -50 137 -13 36 -30 81 -38 100 -24 56 -55 142 -60 168 -19 86 -31 127 -41
140 -12 14 -40 126 -67 260 -16 84 -31 110 -71 131 -32 16 -44 18 -85 9 -26
-6 -71 -27 -100 -46 -28 -19 -56 -34 -62 -34 -6 0 -11 -4 -11 -10 0 -5 -7 -10
-15 -10 -8 0 -15 -5 -15 -11 0 -7 -9 -9 -24 -5 -33 8 -50 -15 -43 -58 6 -40
-8 -58 -40 -50 -19 5 -21 2 -20 -43 1 -33 -7 -64 -22 -93 -12 -23 -26 -61 -31
-84 -4 -22 -15 -72 -24 -111 -9 -38 -16 -86 -16 -106 0 -20 -4 -49 -10 -65
-11 -33 -30 -149 -35 -209 -1 -22 -7 -58 -13 -80 -16 -59 -42 -206 -42 -234 0
-14 -8 -50 -19 -80 -18 -56 -39 -130 -65 -238 -8 -32 -22 -89 -31 -128 -10
-38 -24 -95 -31 -125 -7 -30 -26 -104 -43 -165 -16 -60 -37 -148 -46 -195 -9
-47 -23 -107 -31 -135 -7 -27 -23 -93 -34 -145 -23 -111 -28 -133 -41 -180
-57 -215 -100 -420 -101 -482 0 -26 -5 -38 -14 -38 -14 0 -18 -14 -28 -80 -2
-19 -7 -44 -11 -55 -6 -16 -5 -17 4 -5 8 12 11 8 11 -18 0 -19 -6 -35 -14 -38
-8 -3 -17 -13 -21 -22 -12 -31 -32 -366 -26 -423 4 -31 3 -69 -1 -85 -4 -16
-13 -65 -19 -109 -9 -72 -9 -80 7 -92 21 -15 38 -17 29 -3 -3 5 -1 10 4 10 6
0 11 -6 11 -13 0 -9 12 -13 38 -11 50 3 92 -14 92 -37 0 -24 20 -25 27 -1 3
14 11 18 29 14 13 -2 24 -8 24 -13 0 -16 16 -9 46 20 16 15 39 31 51 35 24 8
33 22 84 126 44 90 68 201 78 366 7 107 14 151 29 180 46 91 93 269 112 419
13 100 15 120 25 250 9 101 46 237 97 351 10 22 18 47 18 56 0 8 7 35 16 59
15 42 32 117 40 169 11 77 56 267 78 329 23 66 30 95 57 231 33 167 48 233 58
243 7 7 12 6 15 -4 13 -38 45 -244 50 -319 3 -47 12 -107 21 -134 8 -27 15
-65 15 -85 0 -20 14 -90 30 -156 17 -66 30 -128 30 -138 0 -10 9 -35 20 -57
11 -22 20 -55 20 -74 0 -19 4 -37 9 -40 5 -3 9 -28 9 -55 1 -28 8 -63 16 -80
9 -16 16 -36 16 -43 0 -8 9 -31 20 -53 11 -22 20 -46 20 -53 0 -23 31 -151 60
-252 16 -52 38 -135 50 -185 12 -49 26 -106 31 -126 5 -20 13 -80 19 -135 6
-54 12 -106 15 -114 2 -8 11 -73 20 -145 24 -207 38 -246 110 -321 34 -35 69
-64 79 -64 9 0 29 -6 45 -14 16 -9 33 -11 40 -6 17 10 71 -12 83 -34 13 -23
58 -21 58 3 0 10 6 21 13 24 7 3 19 23 25 46 13 42 40 65 65 55 8 -3 37 18 71
51 41 40 62 54 75 50 14 -4 21 2 29 22 10 28 37 154 47 223 3 19 12 69 20 110
8 41 19 108 25 149 6 41 22 102 37 135 55 130 113 318 119 389 3 40 8 75 10
79 3 4 14 74 25 155 23 165 32 217 49 283 6 24 10 56 8 71 -1 15 3 33 10 42
13 15 33 105 36 162 1 17 6 38 10 48 5 10 6 43 3 72 -4 38 -2 54 6 52 12 -2
37 148 41 250 1 33 8 68 15 77 8 9 10 26 6 44 -3 16 -1 41 5 56 7 19 7 33 -1
48 -9 17 -8 24 4 33 11 8 16 34 18 100 1 50 7 96 12 103 5 6 7 25 4 41 -4 17
-2 31 4 33 5 2 11 28 11 58 1 30 6 58 12 62 8 5 8 13 -1 26 -7 12 -8 24 -2 33
12 19 11 82 -1 115 -13 34 -8 40 15 17 17 -17 18 -15 12 42 -4 33 -10 72 -13
88 -5 22 -3 26 9 21 14 -5 16 4 17 58 5 259 1 351 -19 424 -11 38 -16 73 -11
79 4 5 9 33 9 60 1 28 3 63 4 79 3 38 -19 45 -34 12 -10 -20 -15 -23 -26 -15
-7 6 -13 20 -13 30 0 25 -37 25 -45 0z"/>
</g>
</svg>
