<?xml version="1.0" standalone="no"?>
<!DOCTYPE svg PUBLIC "-//W3C//DTD SVG 20010904//EN"
 "http://www.w3.org/TR/2001/REC-SVG-20010904/DTD/svg10.dtd">
<svg version="1.0" xmlns="http://www.w3.org/2000/svg"
 width="364.000000pt" height="492.000000pt" viewBox="0 0 364.000000 492.000000"
 preserveAspectRatio="xMidYMid meet">
<metadata>
Created by potrace 1.16, written by Peter Selinger 2001-2019
</metadata>
<g transform="translate(0.000000,492.000000) scale(0.100000,-0.100000)"
fill="#000000" stroke="none">
<path d="M1150 4566 c0 -24 -2 -24 -65 -20 -35 2 -77 -1 -92 -7 -28 -10 -83
-64 -83 -80 0 -5 -7 -9 -15 -9 -8 0 -15 -4 -15 -10 0 -5 -6 -10 -14 -10 -20 0
-84 -75 -92 -107 -4 -16 -16 -45 -26 -67 -11 -21 -18 -47 -15 -57 3 -10 -2
-24 -10 -31 -13 -10 -33 -50 -63 -123 -5 -11 -11 -31 -14 -45 -3 -14 -10 -45
-15 -70 -33 -142 -78 -531 -64 -552 2 -5 0 -8 -5 -8 -4 0 -9 -91 -10 -202 -1
-112 -3 -250 -4 -308 -1 -58 2 -145 7 -195 4 -49 8 -261 9 -470 1 -296 5 -406
18 -495 10 -68 17 -172 16 -255 -1 -111 6 -181 31 -340 17 -110 38 -231 46
-270 8 -38 17 -90 20 -115 7 -55 34 -176 46 -208 5 -13 9 -34 9 -47 0 -15 6
-25 14 -25 17 0 28 -52 13 -62 -7 -5 -3 -8 10 -8 12 0 25 -5 28 -10 9 -15 22
-12 43 10 l19 21 6 -21 c4 -15 13 -20 36 -20 17 0 31 3 31 8 1 4 16 25 34 46
l34 40 27 -18 c25 -16 29 -17 37 -3 4 9 15 23 23 31 8 8 15 21 15 29 0 8 7 28
16 46 31 63 39 150 27 318 -7 87 -12 277 -12 423 -1 281 -22 623 -45 728 -7
35 -10 62 -6 60 4 -2 60 -59 124 -128 65 -69 125 -128 134 -132 9 -3 37 -32
62 -64 25 -31 59 -71 76 -88 17 -17 45 -51 62 -76 17 -25 82 -97 144 -161 63
-63 117 -123 121 -132 7 -20 33 -23 40 -4 4 9 6 9 6 0 1 -7 21 -33 46 -59 25
-25 45 -52 45 -59 0 -8 8 -16 18 -19 22 -7 70 -56 86 -87 6 -12 25 -29 41 -38
35 -19 175 -162 175 -179 0 -6 13 -18 30 -27 16 -8 37 -27 46 -40 9 -14 21
-25 26 -25 5 0 44 -37 86 -82 42 -46 115 -121 162 -168 47 -47 126 -128 175
-180 121 -127 150 -150 188 -150 21 0 41 -10 63 -31 29 -28 54 -32 54 -9 0 5
-13 25 -30 43 -16 19 -30 37 -30 40 0 3 20 13 45 23 45 17 46 17 61 -4 8 -12
22 -22 30 -22 18 0 18 6 -2 40 -10 16 -14 35 -10 45 6 16 10 14 33 -13 25 -31
43 -34 43 -7 0 7 -9 17 -20 20 -24 7 -27 25 -5 25 9 0 29 14 46 31 27 28 30
37 25 70 -11 69 -47 150 -90 200 -22 27 -63 76 -91 110 -68 83 -115 136 -291
325 -187 201 -198 215 -252 294 -25 36 -66 87 -91 113 -111 116 -299 298 -336
326 -22 17 -47 37 -55 45 -8 7 -46 37 -85 66 -38 29 -110 87 -159 129 -164
140 -147 117 -140 190 6 56 9 62 20 46 16 -22 15 -22 43 33 24 47 23 47 52 30
17 -11 22 -10 35 7 8 11 18 31 21 45 10 41 53 85 78 82 17 -2 32 8 56 37 22
28 40 41 57 41 36 0 102 74 102 115 0 24 14 46 66 103 56 61 71 72 98 72 23 0
45 11 73 35 65 56 89 106 135 290 16 66 20 194 9 294 -10 93 -22 124 -95 258
-13 23 -31 59 -40 80 -44 100 -146 279 -186 326 -97 113 -251 243 -349 295
-74 40 -173 74 -198 67 -12 -3 -31 -1 -40 4 -23 12 -184 60 -243 73 -52 12
-98 18 -157 21 -23 1 -48 8 -55 15 -20 20 -38 14 -38 -12z m114 -491 c10 -7
44 -17 75 -21 31 -4 68 -15 83 -25 14 -11 33 -19 41 -19 15 0 95 -39 179 -88
41 -24 166 -124 290 -231 22 -19 49 -53 60 -75 11 -22 29 -52 38 -66 10 -14
21 -43 25 -65 4 -21 13 -51 20 -66 10 -19 12 -36 5 -58 -5 -18 -7 -38 -4 -45
7 -19 -42 -159 -79 -226 -36 -66 -105 -159 -162 -220 -24 -25 -69 -74 -101
-109 -55 -59 -216 -201 -228 -201 -3 0 -28 -16 -55 -35 -58 -42 -80 -44 -112
-9 -13 14 -56 50 -96 80 -39 30 -73 58 -75 63 -1 5 -21 20 -42 35 -30 20 -47
25 -72 20 -48 -9 -58 16 -50 130 6 78 -2 230 -18 343 -3 17 -6 123 -8 235 -2
174 0 209 15 242 9 21 17 49 17 62 0 12 5 26 10 29 6 3 10 19 10 35 0 16 4 31
9 34 5 3 12 23 15 43 7 40 33 99 53 120 6 7 15 23 18 36 13 41 46 67 84 67 20
0 44 -7 55 -15z"/>
</g>
</svg>
