<?xml version="1.0" standalone="no"?>
<!DOCTYPE svg PUBLIC "-//W3C//DTD SVG 20010904//EN"
 "http://www.w3.org/TR/2001/REC-SVG-20010904/DTD/svg10.dtd">
<svg version="1.0" xmlns="http://www.w3.org/2000/svg"
 width="279.000000pt" height="420.000000pt" viewBox="0 0 279.000000 420.000000"
 preserveAspectRatio="xMidYMid meet">
<metadata>
Created by potrace 1.16, written by Peter Selinger 2001-2019
</metadata>
<g transform="translate(0.000000,420.000000) scale(0.100000,-0.100000)"
fill="#000000" stroke="none">
<path d="M1913 4055 l-29 -35 -54 10 c-74 14 -79 13 -91 -14 -6 -13 -20 -26
-29 -29 -13 -3 -25 -27 -39 -73 -20 -65 -58 -124 -79 -124 -15 0 -23 -30 -17
-64 3 -17 7 -46 9 -63 2 -18 9 -40 16 -48 7 -8 10 -22 6 -31 -3 -8 0 -27 8
-42 7 -15 16 -48 19 -73 4 -26 16 -77 28 -115 11 -38 33 -109 49 -159 28 -91
30 -110 46 -435 2 -58 7 -134 10 -170 4 -36 8 -162 10 -280 2 -118 7 -276 12
-350 4 -74 6 -178 5 -230 -4 -246 -14 -450 -23 -505 -5 -33 -14 -98 -20 -145
-11 -95 -25 -165 -46 -225 -8 -23 -14 -49 -14 -59 0 -30 -60 -128 -76 -122 -7
3 -28 0 -46 -6 -18 -5 -76 -12 -129 -14 l-97 -5 -61 67 c-33 37 -61 71 -61 75
0 5 -7 9 -15 9 -8 0 -15 6 -15 14 0 11 -50 122 -81 180 -20 36 -69 287 -83
421 -2 22 -16 101 -30 175 -15 74 -24 145 -21 158 3 12 1 30 -4 40 -5 9 -12
80 -15 157 -6 139 -17 277 -36 430 -5 44 -14 127 -19 185 -18 185 -31 292 -36
300 -2 4 -9 92 -15 196 -6 104 -15 200 -20 214 -9 23 -10 41 -8 115 0 17 -5
68 -11 115 -7 47 -14 114 -16 150 -2 36 -9 74 -14 85 -5 11 -12 36 -16 57 -3
20 -12 39 -20 42 -8 3 -15 11 -15 19 0 29 -50 61 -103 67 -42 5 -61 1 -99 -17
-25 -12 -48 -26 -50 -30 -1 -5 -16 -19 -32 -31 -61 -47 -83 -106 -95 -258 -5
-71 -14 -156 -20 -189 -15 -87 0 -255 30 -335 5 -14 12 -61 14 -105 9 -163 23
-248 49 -308 5 -9 6 -26 3 -37 -3 -11 -1 -37 4 -57 10 -40 24 -138 38 -261 10
-83 29 -118 80 -144 31 -15 31 -17 9 -20 -26 -3 -26 3 -9 -154 6 -55 16 -116
21 -135 6 -18 10 -56 10 -82 0 -27 6 -75 14 -106 8 -31 14 -63 14 -71 1 -8 3
-35 7 -60 3 -25 8 -63 11 -85 12 -101 17 -126 25 -131 5 -3 9 -29 9 -57 0 -29
5 -70 12 -92 6 -22 11 -46 9 -53 -1 -8 2 -19 7 -25 5 -7 12 -34 16 -61 3 -27
11 -55 17 -62 6 -8 9 -20 6 -29 -4 -8 -2 -17 3 -20 6 -4 10 -15 10 -25 0 -17
21 -71 51 -131 4 -9 13 -36 19 -60 7 -24 18 -51 27 -61 8 -9 16 -33 18 -54 2
-21 11 -43 19 -50 9 -6 16 -16 16 -23 0 -6 7 -11 16 -11 10 0 13 -6 10 -17 -7
-23 8 -48 23 -39 7 5 11 -2 11 -18 0 -18 10 -32 35 -48 19 -13 35 -28 35 -35
0 -7 11 -20 26 -30 14 -10 43 -35 65 -55 21 -20 65 -49 97 -64 31 -16 60 -32
63 -36 9 -13 139 -38 203 -38 58 0 115 22 266 106 25 14 55 23 66 21 16 -3 27
6 45 35 13 21 28 38 33 38 17 0 206 203 206 222 0 5 11 24 24 41 24 32 81 172
90 219 2 14 9 34 15 44 13 25 39 130 57 229 7 44 18 103 24 130 12 57 37 228
51 355 11 96 3 563 -11 685 -5 44 -12 145 -15 225 -3 80 -12 179 -20 220 -15
73 -28 163 -45 305 -4 39 -15 97 -23 130 -8 33 -21 87 -27 120 -7 33 -19 79
-27 102 -9 23 -14 44 -12 46 2 3 -3 13 -12 23 -10 12 -20 57 -28 124 -13 112
-42 251 -71 340 -10 30 -21 74 -25 97 -3 23 -13 47 -21 54 -9 7 -22 25 -30 41
-19 37 -36 35 -71 -7z"/>
</g>
</svg>
