<?xml version="1.0" standalone="no"?>
<!DOCTYPE svg PUBLIC "-//W3C//DTD SVG 20010904//EN"
 "http://www.w3.org/TR/2001/REC-SVG-20010904/DTD/svg10.dtd">
<svg version="1.0" xmlns="http://www.w3.org/2000/svg"
 width="116.000000pt" height="292.000000pt" viewBox="0 0 116.000000 292.000000"
 preserveAspectRatio="xMidYMid meet">
<metadata>
Created by potrace 1.16, written by Peter Selinger 2001-2019
</metadata>
<g transform="translate(0.000000,292.000000) scale(0.100000,-0.100000)"
fill="#000000" stroke="none">
<path d="M520 2642 c0 -21 -59 -72 -83 -72 -17 0 -16 -125 2 -143 6 -6 11 -16
11 -22 0 -23 75 -83 113 -89 28 -5 40 -14 47 -32 l10 -25 47 35 c27 20 58 45
70 57 23 23 36 93 21 121 -4 9 -8 28 -8 42 0 14 -4 28 -10 31 -5 3 -10 14 -10
24 0 33 -25 71 -47 72 -63 4 -81 6 -120 13 -39 7 -43 6 -43 -12z"/>
<path d="M447 681 c-58 -28 -84 -58 -91 -106 -7 -44 9 -102 38 -135 7 -8 17
-32 20 -53 6 -30 14 -41 39 -51 36 -15 88 -38 100 -44 4 -2 7 3 7 12 0 10 9
16 23 16 37 1 117 57 117 83 0 8 9 25 19 39 17 21 18 33 11 91 -10 85 -28 112
-93 143 -62 29 -135 30 -190 5z"/>
</g>
</svg>
